<svg width="29" height="29" viewBox="0 0 29 29" fill="none" xmlns="http://www.w3.org/2000/svg">
<path d="M14.5042 0.71875C18.3686 0.71875 21.8717 2.28971 24.4088 4.81836C26.9458 7.35541 28.5084 10.8502 28.5084 14.7229C28.5084 18.5873 26.9374 22.0905 24.4088 24.6275C21.8717 27.1646 18.377 28.7271 14.5042 28.7271C10.6398 28.7271 7.13666 27.1562 4.59961 24.6275C2.06256 22.0905 0.5 18.5957 0.5 14.7229C0.5 10.8586 2.07096 7.35541 4.59961 4.81836C7.13666 2.28131 10.6314 0.71875 14.5042 0.71875ZM16.0248 10.2705H18.5534V7.2378H16.0248C14.0758 7.2378 12.488 8.82556 12.488 10.7746V12.2951H10.4634V15.3278H12.488V23.4178H15.5207V15.3278H18.0494L18.5534 12.2951H15.5207V10.7746C15.5207 10.4973 15.7559 10.2705 16.0248 10.2705ZM23.6947 5.54083C21.3425 3.1886 18.0998 1.73525 14.5126 1.73525C10.9254 1.73525 7.67432 3.1886 5.33048 5.54083C2.97825 7.89307 1.5249 11.1358 1.5249 14.7229C1.5249 18.3101 2.97825 21.5612 5.33048 23.9051C7.68272 26.2573 10.9254 27.7106 14.5126 27.7106C18.0998 27.7106 21.3509 26.2573 23.6947 23.9051C26.047 21.5528 27.5003 18.3101 27.5003 14.7229C27.5003 11.1358 26.047 7.88467 23.6947 5.54083Z" fill="white"/>
</svg>
