<svg width="29" height="29" viewBox="0 0 29 29" fill="none" xmlns="http://www.w3.org/2000/svg">
<g clip-path="url(#clip0_1_338)">
<path fill-rule="evenodd" clip-rule="evenodd" d="M14.4622 10.5813C16.8564 10.5813 18.797 12.5219 18.797 14.9162C18.797 17.3104 16.8564 19.251 14.4622 19.251C12.068 19.251 10.1274 17.3104 10.1274 14.9162C10.1274 12.5219 12.068 10.5813 14.4622 10.5813ZM11.2279 7.04458H17.7805C20.242 7.04458 22.2498 9.03558 22.2498 11.455V17.9909C22.2498 20.4187 20.242 22.4013 17.7805 22.4013H11.2279C8.76643 22.4013 6.75863 20.4187 6.75863 17.9909V11.455C6.75863 9.02718 8.77483 7.04458 11.2279 7.04458ZM18.6542 9.97648C19.0407 9.97648 19.3599 10.2873 19.3599 10.6821C19.3599 11.0686 19.0491 11.3878 18.6542 11.3878C18.2678 11.3878 17.9485 11.077 17.9485 10.6821C17.9485 10.2957 18.2594 9.97648 18.6542 9.97648ZM11.7655 8.29631H17.2429C19.3011 8.29631 20.9812 9.96807 20.9812 12.0179V17.5288C20.9812 19.5786 19.3011 21.2504 17.2429 21.2504H11.7655C9.70732 21.2504 8.02715 19.5786 8.02715 17.5288V12.0179C8.02715 9.96807 9.70732 8.29631 11.7655 8.29631ZM14.5042 0.71875C18.3686 0.71875 21.8717 2.28971 24.4088 4.81836C26.9458 7.35541 28.5084 10.8502 28.5084 14.7229C28.5084 18.5873 26.9374 22.0905 24.4088 24.6275C21.8717 27.1646 18.377 28.7271 14.5042 28.7271C10.6398 28.7271 7.13666 27.1562 4.59961 24.6275C2.06256 22.0905 0.5 18.5957 0.5 14.7229C0.5 10.8586 2.07096 7.35541 4.59961 4.81836C7.13666 2.28131 10.6314 0.71875 14.5042 0.71875ZM23.6863 5.53243C21.3341 3.1802 18.0914 1.72685 14.5042 1.72685C10.917 1.72685 7.66592 3.1802 5.32208 5.53243C2.96985 7.88467 1.5165 11.1274 1.5165 14.7145C1.5165 18.3017 2.96985 21.5528 5.32208 23.8967C7.67432 26.2489 10.917 27.7022 14.5042 27.7022C18.0914 27.7022 21.3425 26.2489 23.6863 23.8967C26.0386 21.5444 27.4919 18.3017 27.4919 14.7145C27.4919 11.1274 26.0386 7.87627 23.6863 5.53243ZM14.4622 12.0347C16.0416 12.0347 17.3269 13.32 17.3269 14.8994C17.3269 16.4787 16.0416 17.7641 14.4622 17.7641C12.8744 17.7641 11.5975 16.4787 11.5975 14.8994C11.5975 13.32 12.8828 12.0347 14.4622 12.0347Z" fill="white"/>
</g>
<defs>
<clipPath id="clip0_1_338">
<rect width="28" height="28" fill="white" transform="translate(0.5 0.71875)"/>
</clipPath>
</defs>
</svg>
