<svg width="29" height="29" viewBox="0 0 29 29" fill="none" xmlns="http://www.w3.org/2000/svg">
<g clip-path="url(#clip0_1_335)">
<path d="M14.5042 0.71875C18.3686 0.71875 21.8717 2.28971 24.4088 4.81836C26.9458 7.35541 28.5084 10.8502 28.5084 14.7229C28.5084 18.5873 26.9374 22.0905 24.4088 24.6275C21.8717 27.1646 18.377 28.7271 14.5042 28.7271C10.6398 28.7271 7.13666 27.1562 4.59961 24.6275C2.06256 22.0905 0.5 18.5957 0.5 14.7229C0.5 10.8586 2.07096 7.35541 4.59961 4.81836C7.13666 2.28131 10.6314 0.71875 14.5042 0.71875ZM21.7877 10.2033C21.2501 10.4469 20.6788 10.5981 20.074 10.6737C20.6956 10.3041 21.1661 9.71605 21.3929 9.01878C20.8132 9.36321 20.1748 9.60684 19.4943 9.74125C18.9482 9.16159 18.1754 8.80036 17.3101 8.80036C15.6551 8.80036 14.3194 10.1361 14.3194 11.7911C14.3194 12.0263 14.3446 12.2531 14.395 12.4715C11.9083 12.3455 9.70732 11.1526 8.23717 9.34641C7.97675 9.80006 7.83393 10.3209 7.83393 10.8502C7.83393 11.8835 8.36319 12.7992 9.16127 13.3368C8.67402 13.32 8.21197 13.1856 7.80873 12.9672V13.0008C7.80873 14.4457 8.84203 15.6554 10.2114 15.9327C9.95935 15.9999 9.69892 16.0419 9.42169 16.0419C9.22847 16.0419 9.04365 16.0251 8.85884 15.9915C9.24527 17.176 10.3458 18.0413 11.6479 18.0665C10.623 18.873 9.33768 19.3434 7.93474 19.3434C7.69112 19.3434 7.4559 19.3266 7.22067 19.3014C8.548 20.1499 10.119 20.6455 11.8075 20.6455C17.3017 20.6455 20.3176 16.0923 20.3176 12.1355C20.3176 12.0011 20.3176 11.8751 20.3092 11.7491C20.8972 11.329 21.4013 10.8082 21.7961 10.2033H21.7877ZM23.6863 5.54083C21.3341 3.1886 18.0914 1.73525 14.5042 1.73525C10.917 1.73525 7.66592 3.1886 5.32208 5.54083C2.96985 7.89307 1.5165 11.1358 1.5165 14.7229C1.5165 18.3101 2.96985 21.5612 5.32208 23.9051C7.67432 26.2573 10.917 27.7106 14.5042 27.7106C18.0914 27.7106 21.3425 26.2573 23.6863 23.9051C26.0386 21.5528 27.4919 18.3101 27.4919 14.7229C27.4919 11.1358 26.0386 7.88467 23.6863 5.54083Z" fill="white"/>
</g>
<defs>
<clipPath id="clip0_1_335">
<rect width="28" height="28" fill="white" transform="translate(0.5 0.71875)"/>
</clipPath>
</defs>
</svg>
